<?xml version="1.0" standalone="no"?><!DOCTYPE svg PUBLIC "-//W3C//DTD SVG 1.1//EN" "http://www.w3.org/Graphics/SVG/1.1/DTD/svg11.dtd"><svg t="1575254134551" class="icon" viewBox="0 0 1024 1024" version="1.1" xmlns="http://www.w3.org/2000/svg" p-id="36494" xmlns:xlink="http://www.w3.org/1999/xlink" width="32" height="32"><defs><style type="text/css"></style></defs><path d="M798.883 39.973c-34.797 16.57-69.925 38.553-105.385 65.95-35.46 27.395-70.478 59.21-105.055 95.554-34.576 36.343-66.943 74.123-96.99 113.45-30.047 39.326-57.443 79.204-81.967 119.525-24.523 40.431-44.739 78.321-60.536 113.892-15.686 34.907-26.954 62.082-33.803 81.525-6.849 19.442-11.157 34.355-12.924 44.739-2.541 11.599-2.43 19.553 0.22 23.64-1.877 2.43-4.639 7.512-7.953 15.134-3.425 6.96-8.175 16.79-14.14 29.384-6.076 12.593-14.802 30.379-26.291 53.024-17.564 36.013-31.262 67.385-41.204 94.229-9.942 26.844-17.233 49.158-21.873 67.275-5.413 21.21-8.948 38.663-10.384 52.361 27.507-44.408 54.24-86.938 80.31-127.59 11.047-17.453 22.314-35.46 33.803-53.908 11.488-18.448 22.535-36.454 33.361-54.018 10.826-17.454 21.1-34.135 30.82-49.71 9.832-15.687 18.559-29.385 26.402-41.205 37.117-58.106 73.35-111.572 108.81-160.288 35.35-48.716 67.385-90.693 95.996-125.822 33.14-41.315 64.513-78.542 94.229-111.682-24.855 40.762-50.815 83.955-77.769 129.799-23.64 39.436-50.263 83.623-79.757 132.56-29.495 48.827-59.984 98.648-91.357 149.352-11.157 18.78-21.762 35.902-31.925 51.146-10.052 15.245-18.669 28.501-25.85 39.769-8.505 13.145-16.238 24.965-23.418 35.57 20.547 9.5 41.204 16.791 61.972 21.652 17.896 4.75 36.896 7.732 57.001 8.948 20.105 1.325 38.664-1.989 55.565-9.832 16.902-7.843 33.14-16.57 48.716-26.18 15.576-9.611 29.495-18.78 41.757-27.728 14.14-10.715 27.506-21.1 39.878-31.262l-87.269-24.745L681.9 706.864c9.5-10.384 18.669-21.872 27.727-34.245 7.733-10.604 16.018-22.977 24.855-37.448 8.837-14.36 16.68-30.158 23.75-47.39 3.425-6.96 7.291-17.454 11.71-31.594l15.576-50.926c-8.396 2.541-18.78 5.413-31.373 8.286-12.483 2.982-24.744 5.854-36.675 8.837-13.698 3.535-28.059 6.96-42.861 10.384l121.845-62.193c10.495-35.24 21.43-74.676 33.03-118.09a3819.28 3819.28 0 0 0 31.925-128.473c9.721-42.199 18.117-81.967 25.186-119.194 7.07-37.228 11.047-67.275 11.931-90.142-31.594 0.332-64.844 8.727-99.642 25.297z" p-id="36495" fill="#276cda"></path></svg>